ffmpeg version 4.2.2 Copyright (c) 2000-2019 the FFmpeg developers
  built with gcc 9.2.1 (GCC) 20200122
  configuration: --enable-gpl --enable-version3 --enable-sdl2 --enable-fontconfig --enable-gnutls --enable-iconv --enable-libass --enable-libdav1d --enable-libbluray --enable-libfreetype --enable-libmp3lame --enable-libopencore-amrnb --enable-libopencore-amrwb --enable-libopenjpeg --enable-libopus --enable-libshine --enable-libsnappy --enable-libsoxr --enable-libtheora --enable-libtwolame --enable-libvpx --enable-libwavpack --enable-libwebp --enable-libx264 --enable-libx265 --enable-libxml2 --enable-libzimg --enable-lzma --enable-zlib --enable-gmp --enable-libvidstab --enable-libvorbis --enable-libvo-amrwbenc --enable-libmysofa --enable-libspeex --enable-libxvid --enable-libaom --enable-libmfx --enable-amf --enable-ffnvcodec --enable-cuvid --enable-d3d11va --enable-nvenc --enable-nvdec --enable-dxva2 --enable-avisynth --enable-libopenmpt
  libavutil      56. 31.100 / 56. 31.100
  libavcodec     58. 54.100 / 58. 54.100
  libavformat    58. 29.100 / 58. 29.100
  libavdevice    58.  8.100 / 58.  8.100
  libavfilter     7. 57.100 /  7. 57.100
  libswscale      5.  5.100 /  5.  5.100
  libswresample   3.  5.100 /  3.  5.100
  libpostproc    55.  5.100 / 55.  5.100
Guessed Channel Layout for Input Stream #0.0 : stereo
Input #0, s32le, from 'pipe:':
  Duration: N/A, bitrate: 2822 kb/s
    Stream #0:0: Audio: pcm_s32le, 44100 Hz, stereo, s32, 2822 kb/s
Stream mapping:
  Stream #0:0 -> #0:0 (pcm_s32le (native) -> mp3 (libmp3lame))
Output #0, mp3, to 'bemtemplateTEMP_MPY_wvf_snd.mp3':
  Metadata:
    TSSE            : Lavf58.29.100
    Stream #0:0: Audio: mp3 (libmp3lame), 44100 Hz, stereo, s32p
    Metadata:
      encoder         : Lavc58.54.100 libmp3lame
size=      86kB time=00:00:05.46 bitrate= 129.0kbits/s speed=10.9x    size=     166kB time=00:00:10.60 bitrate= 128.5kbits/s speed=10.6x    size=     256kB time=00:00:26.22 bitrate=  80.0kbits/s speed=17.4x    size=     256kB time=00:00:31.03 bitrate=  67.6kbits/s speed=15.5x    size=     512kB time=00:00:35.84 bitrate= 117.0kbits/s speed=14.3x    size=     512kB time=00:00:43.36 bitrate=  96.7kbits/s speed=14.4x    size=     768kB time=00:00:49.18 bitrate= 127.9kbits/s speed=13.9x    size=     768kB time=00:00:54.28 bitrate= 115.9kbits/s speed=13.5x    size=     768kB time=00:00:59.24 bitrate= 106.2kbits/s speed=13.1x    size=    1024kB time=00:01:07.29 bitrate= 124.7kbits/s speed=13.4x    size=    1024kB time=00:01:12.46 bitrate= 115.8kbits/s speed=13.1x    size=    1024kB time=00:01:18.31 bitrate= 107.1kbits/s speed=  13x    size=    1280kB time=00:01:22.99 bitrate= 126.3kbits/s speed=12.7x    size=    1280kB time=00:01:28.97 bitrate= 117.9kbits/s speed=12.6x    size=    1536kB time=00:01:38.82 bitrate= 127.3kbits/s speed=13.1x    size=    1536kB time=00:01:45.90 bitrate= 118.8kbits/s speed=13.2x    size=    1536kB time=00:01:53.79 bitrate= 110.6kbits/s speed=13.3x    size=    1792kB time=00:02:03.40 bitrate= 119.0kbits/s speed=13.6x    size=    2048kB time=00:02:11.55 bitrate= 127.5kbits/s speed=13.8x    size=    2048kB time=00:02:18.03 bitrate= 121.5kbits/s speed=13.7x    size=    2304kB time=00:02:29.08 bitrate= 126.6kbits/s speed=14.1x    size=    2304kB time=00:02:37.88 bitrate= 119.5kbits/s speed=14.3x    size=    2560kB time=00:02:49.11 bitrate= 124.0kbits/s speed=14.6x    size=    2816kB time=00:03:07.63 bitrate= 122.9kbits/s speed=15.6x    size=    3072kB time=00:03:17.90 bitrate= 127.2kbits/s speed=15.8x    size=    3328kB time=00:03:35.43 bitrate= 126.5kbits/s speed=16.5x    size=    3328kB time=00:03:42.59 bitrate= 122.5kbits/s speed=16.4x    size=    3584kB time=00:03:53.66 bitrate= 125.6kbits/s speed=16.6x    size=    3584kB time=00:04:02.44 bitrate= 121.1kbits/s speed=16.6x    size=    3840kB time=00:04:10.56 bitrate= 125.5kbits/s speed=16.6x    size=    3840kB time=00:04:18.11 bitrate= 121.9kbits/s speed=16.6x    size=    4096kB time=00:04:29.50 bitrate= 124.5kbits/s speed=16.8x    size=    4096kB time=00:04:38.44 bitrate= 120.5kbits/s speed=16.8x    size=    4352kB time=00:04:47.79 bitrate= 123.9kbits/s speed=16.8x    size=    4608kB time=00:04:57.19 bitrate= 127.0kbits/s speed=16.9x    size=    4608kB time=00:05:06.44 bitrate= 123.2kbits/s speed=16.9x    size=    4864kB time=00:05:16.91 bitrate= 125.7kbits/s speed=  17x    size=    5120kB time=00:05:29.11 bitrate= 127.4kbits/s speed=17.2x    size=    5376kB time=00:05:44.50 bitrate= 127.8kbits/s speed=17.6x    size=    5376kB time=00:05:55.86 bitrate= 123.8kbits/s speed=17.7x    size=    5632kB time=00:06:02.63 bitrate= 127.2kbits/s speed=17.6x    size=    5632kB time=00:06:09.58 bitrate= 124.8kbits/s speed=17.5x    size=    5632kB time=00:06:16.55 bitrate= 122.5kbits/s speed=17.4x    size=    5888kB time=00:06:22.95 bitrate= 126.0kbits/s speed=17.3x    size=    5888kB time=00:06:28.57 bitrate= 124.1kbits/s speed=17.2x    size=    6144kB time=00:06:36.93 bitrate= 126.8kbits/s speed=17.2x    size=    6144kB time=00:06:44.48 bitrate= 124.4kbits/s speed=17.1x    size=    6400kB time=00:06:49.99 bitrate= 127.9kbits/s speed=  17x    size=    6400kB time=00:07:01.51 bitrate= 124.4kbits/s speed=17.1x    size=    6656kB time=00:07:10.91 bitrate= 126.5kbits/s speed=17.2x    size=    6656kB time=00:07:18.75 bitrate= 124.3kbits/s speed=17.1x    size=    6912kB time=00:07:37.95 bitrate= 123.6kbits/s speed=17.5x    size=    7168kB time=00:07:51.51 bitrate= 124.5kbits/s speed=17.7x    size=    7424kB time=00:08:00.96 bitrate= 126.4kbits/s speed=17.7x    size=    7424kB time=00:08:10.71 bitrate= 123.9kbits/s speed=17.8x    size=    7680kB time=00:08:25.99 bitrate= 124.3kbits/s speed=  18x    size=    7936kB time=00:08:40.17 bitrate= 125.0kbits/s speed=18.2x    size=    8192kB time=00:08:51.20 bitrate= 126.3kbits/s speed=18.2x    size=    8448kB time=00:09:01.98 bitrate= 127.7kbits/s speed=18.3x    size=    8448kB time=00:09:10.50 bitrate= 125.7kbits/s speed=18.3x    size=    8704kB time=00:09:17.63 bitrate= 127.9kbits/s speed=18.2x    size=    8704kB time=00:09:29.31 bitrate= 125.2kbits/s speed=18.3x    size=    8960kB time=00:09:38.87 bitrate= 126.8kbits/s speed=18.3x    size=    8960kB time=00:09:48.17 bitrate= 124.8kbits/s speed=18.3x    size=    9216kB time=00:09:55.12 bitrate= 126.9kbits/s speed=18.2x    size=    9472kB time=00:10:09.72 bitrate= 127.3kbits/s speed=18.4x    size=    9472kB time=00:10:19.62 bitrate= 125.2kbits/s speed=18.4x    size=    9728kB time=00:10:28.50 bitrate= 126.8kbits/s speed=18.4x    size=    9728kB time=00:10:35.66 bitrate= 125.4kbits/s speed=18.3x    size=    9984kB time=00:10:44.18 bitrate= 127.0kbits/s speed=18.3x    size=    9984kB time=00:10:51.65 bitrate= 125.5kbits/s speed=18.3x    size=   10240kB time=00:11:01.65 bitrate= 126.8kbits/s speed=18.3x    size=   10240kB time=00:11:08.68 bitrate= 125.4kbits/s speed=18.2x    size=   10496kB time=00:11:18.89 bitrate= 126.7kbits/s speed=18.3x    size=   10496kB time=00:11:27.02 bitrate= 125.2kbits/s speed=18.2x    size=   10752kB time=00:11:40.65 bitrate= 125.7kbits/s speed=18.4x    size=   11008kB time=00:11:50.53 bitrate= 126.9kbits/s speed=18.4x    size=   11264kB time=00:12:00.92 bitrate= 128.0kbits/s speed=18.4x    size=   11264kB time=00:12:12.63 bitrate= 125.9kbits/s speed=18.5x    size=   11520kB time=00:12:25.95 bitrate= 126.5kbits/s speed=18.6x    size=   11520kB time=00:12:32.32 bitrate= 125.4kbits/s speed=18.5x    size=   11776kB time=00:12:39.92 bitrate= 126.9kbits/s speed=18.5x    size=   11776kB time=00:12:45.83 bitrate= 126.0kbits/s speed=18.4x    size=   12032kB time=00:12:53.12 bitrate= 127.5kbits/s speed=18.3x    size=   12032kB time=00:12:59.99 bitrate= 126.4kbits/s speed=18.3x    size=   12288kB time=00:13:06.41 bitrate= 128.0kbits/s speed=18.2x    size=   12288kB time=00:13:16.03 bitrate= 126.5kbits/s speed=18.2x    size=   12544kB time=00:13:25.85 bitrate= 127.5kbits/s speed=18.2x    size=   12544kB time=00:13:37.08 bitrate= 125.8kbits/s speed=18.3x    size=   12800kB time=00:13:45.10 bitrate= 127.1kbits/s speed=18.2x    size=   13056kB time=00:13:55.76 bitrate= 128.0kbits/s speed=18.3x    size=   13056kB time=00:14:03.80 bitrate= 126.8kbits/s speed=18.3x    size=   13056kB time=00:14:11.69 bitrate= 125.6kbits/s speed=18.2x    size=   13312kB time=00:14:19.69 bitrate= 126.9kbits/s speed=18.2x    size=   13568kB time=00:14:34.13 bitrate= 127.2kbits/s speed=18.3x    size=   13824kB time=00:14:46.98 bitrate= 127.7kbits/s speed=18.4x    size=   13824kB time=00:14:54.30 bitrate= 126.6kbits/s speed=18.4x    size=   14080kB time=00:15:03.73 bitrate= 127.6kbits/s speed=18.4x    size=   14080kB time=00:15:11.04 bitrate= 126.6kbits/s speed=18.3x    size=   14336kB time=00:15:18.96 bitrate= 127.8kbits/s speed=18.3x    size=   14393kB time=00:15:21.10 bitrate= 128.0kbits/s speed=18.3x    
video:0kB audio:14393kB subtitle:0kB other streams:0kB global headers:0kB muxing overhead: 0.001717%
